<?xml version="1.0" encoding="utf-8"?>
<!-- Generator: Adobe Illustrator 24.3.0, SVG Export Plug-In . SVG Version: 6.00 Build 0)  -->
<svg version="1.1" id="Layer_1" xmlns="http://www.w3.org/2000/svg" xmlns:xlink="http://www.w3.org/1999/xlink" x="0px" y="0px"
	 viewBox="0 0 595.28 841.89" style="enable-background:new 0 0 595.28 841.89;" xml:space="preserve">
<style type="text/css">
	.st0{fill:#FDFEFE;}
	.st1{fill:#1A9AD6;}
	.st2{fill:#1B4B9B;}
	.st3{fill:#8DC342;}
	.st4{fill:#3CB54A;}
</style>
<circle class="st0" cx="347.93" cy="410.1" r="172.31"/>
<path class="st1" d="M288.35,534.92L288.35,534.92c-22.02,0-39.87-17.85-39.87-39.87V325.14c0-22.02,17.85-39.87,39.87-39.87h0
	c22.02,0,39.87,17.85,39.87,39.87v169.91C328.22,517.07,310.37,534.92,288.35,534.92z"/>
<path class="st2" d="M288.35,538.66L288.35,538.66c-22.02,0-39.87-17.85-39.87-39.87v-74.32c0-22.02,17.85-39.87,39.87-39.87h0
	c22.02,0,39.87,17.85,39.87,39.87v74.32C328.22,520.81,310.37,538.66,288.35,538.66z"/>
<path class="st3" d="M347.17,401.95L347.17,401.95c-15.57-15.57-15.57-40.82,0-56.39l48.56-48.56c15.57-15.57,40.82-15.57,56.39,0
	l0,0c15.57,15.57,15.57,40.82,0,56.39l-48.56,48.56C387.99,417.52,362.74,417.52,347.17,401.95z"/>
<path class="st4" d="M347.61,403.45l-0.94-0.94c-15.64-15.64-15.64-41,0-56.64l16.25-16.25c15.64-15.64,41-15.64,56.64,0l0.94,0.94
	c15.64,15.64,15.64,41,0,56.64l-16.25,16.25C388.61,419.09,363.25,419.09,347.61,403.45z"/>
</svg>
